<?xml version="1.0" encoding="UTF-8"?>
<svg version="1.1" xmlns="http://www.w3.org/2000/svg" width="64" height="64">
<path d="M0 0 C1.19314819 0.01208496 1.19314819 0.01208496 2.41040039 0.02441406 C8.37552143 0.22834982 12.72938549 1.21682573 17.0625 5.5625 C17.7225 6.18125 18.3825 6.8 19.0625 7.4375 C20.60118102 10.70719718 20.56227296 13.00161768 20.0625 16.5625 C18.08287522 19.47007389 16.6641924 21.22343205 13.125 21.97265625 C8.50538615 22.17388943 5.95227765 21.08559902 2.0625 18.5625 C-0.64703551 18.31053871 -0.64703551 18.31053871 -2.9375 18.5625 C-2.9375 20.2125 -2.9375 21.8625 -2.9375 23.5625 C-2.050625 23.830625 -1.16375 24.09875 -0.25 24.375 C5.49369266 26.43405963 5.49369266 26.43405963 8.0625 28.5625 C9.0625 32.0625 9.0625 32.0625 9.0625 35.5625 C7.87109375 37.2578125 7.87109375 37.2578125 6.0625 38.5625 C3.72265625 38.9609375 3.72265625 38.9609375 1.125 38.9375 C-0.15697266 38.94910156 -0.15697266 38.94910156 -1.46484375 38.9609375 C-4.38363049 38.49061167 -5.63435397 37.34966627 -7.9375 35.5625 C-11.60464849 35.31186268 -11.60464849 35.31186268 -14.9375 35.5625 C-15.89117452 38.26840396 -15.89117452 38.26840396 -15.9375 41.5625 C-13.46283537 45.58383002 -12.03020314 47.10020252 -7.6875 48.9375 C0.10080351 50.23555058 6.82407368 50.01652086 14.0625 46.5625 C17.54683942 43.73147422 17.64255745 40.02983981 18.14453125 35.78125 C18.04819839 33.17567539 17.48505068 31.73649771 16.0625 29.5625 C13.52479997 28.27995356 13.52479997 28.27995356 11.0625 27.5625 C11.0625 26.9025 11.0625 26.2425 11.0625 25.5625 C14.70070044 25.23175451 16.4398086 25.07444458 19.375 27.375 C22.48270924 31.40351197 22.57593578 35.65218693 22.0625 40.5625 C20.31461339 45.25419564 17.81785352 48.27656567 14.0625 51.5625 C9.6581863 53.03060457 5.36453489 52.82800881 0.75 52.875 C-0.18779297 52.90400391 -1.12558594 52.93300781 -2.09179688 52.96289062 C-8.07100135 53.0176684 -11.36046928 52.48880271 -15.9375 48.5625 C-18.90001569 45.4978286 -19.76367836 42.82113016 -19.9375 38.5625 C-18.33338152 35.03343933 -17.19590638 33.73477092 -13.9375 31.5625 C-8.85188917 31.10017174 -6.8835245 31.5730875 -2.9375 34.5625 C-0.26157224 35.12149458 2.32912547 35.33471879 5.0625 35.5625 C5.19065365 33.1772267 5.19065365 33.1772267 4.0625 30.5625 C2.13070798 29.32372754 0.18698521 28.43728535 -1.9296875 27.5546875 C-4.11183716 26.47634895 -5.41258138 25.45452866 -6.9375 23.5625 C-7.32351984 20.47434125 -7.41651666 18.46065624 -5.9375 15.6875 C-2.74605897 13.89231442 0.53639697 14.00234514 4.0625 14.5625 C5.42411311 15.52363866 6.76105198 16.52134159 8.0625 17.5625 C11.1467309 17.97952122 11.1467309 17.97952122 14.0625 17.5625 C16.24170507 15.74442915 16.24170507 15.74442915 16.5625 13.25 C15.94731536 9.94338258 14.55981789 8.61366769 11.890625 6.63671875 C5.68224417 2.98863172 -1.08441423 2.98101867 -7.9375 4.5625 C-11.37174856 6.27962428 -13.2752777 7.55477041 -15.375 10.75 C-16.19045717 14.82728585 -16.292368 18.58975147 -14.9375 22.5625 C-12.03498698 24.72497221 -12.03498698 24.72497221 -8.9375 25.5625 C-8.9375 26.2225 -8.9375 26.8825 -8.9375 27.5625 C-12.57570044 27.89324549 -14.3148086 28.05055542 -17.25 25.75 C-20.34879587 21.73304239 -20.54863803 17.46033481 -19.9375 12.5625 C-18.51338634 7.81831414 -16.93188567 5.26936759 -12.84375 2.36328125 C-8.6125012 0.1014003 -4.72816643 -0.08931367 0 0 Z " fill="#000000" transform="translate(30.9375,5.4375)"/>
</svg>
